<?xml version="1.0" standalone="no"?>
<!DOCTYPE svg PUBLIC "-//W3C//DTD SVG 20010904//EN"
 "http://www.w3.org/TR/2001/REC-SVG-20010904/DTD/svg10.dtd">
<svg version="1.0" xmlns="http://www.w3.org/2000/svg"
 width="400.000000pt" height="400.000000pt" viewBox="0 0 400.000000 400.000000"
 preserveAspectRatio="xMidYMid meet">
<metadata>
Created by potrace 1.14, written by Peter Selinger 2001-2017
</metadata>
<g transform="translate(0.000000,400.000000) scale(0.100000,-0.100000)"
fill="#000000" stroke="none">
<path d="M797 3811 c-2 -3 -3 -328 -2 -721 l0 -715 518 0 517 0 -2 -175 -3
-175 -725 -1 -725 -1 -3 -128 c-1 -72 1 -131 7 -134 14 -9 3220 -6 3228 3 13
13 12 256 -1 257 -6 0 -335 1 -730 2 l-720 2 0 168 c-1 93 1 172 4 175 3 4
246 7 540 7 l535 0 1 128 1 127 -1057 0 -1056 0 0 169 c1 93 4 173 8 177 4 4
452 7 995 8 l988 1 3 123 3 122 -998 0 -999 0 1 165 c0 105 3 165 10 166 5 0
476 1 1045 2 l1035 2 0 125 0 125 -1208 1 c-664 1 -1209 -1 -1210 -5z"/>
<path d="M1817 1484 c-1 -1 -49 -5 -107 -8 -58 -4 -116 -9 -130 -11 -14 -2
-43 -7 -65 -10 -94 -14 -115 -18 -210 -41 -310 -78 -497 -225 -533 -421 -37
-204 67 -384 284 -492 68 -34 212 -87 259 -95 14 -3 60 -11 102 -20 82 -16
210 -32 328 -41 81 -6 428 -6 495 0 25 2 77 7 115 10 59 5 152 19 266 40 15 3
66 16 113 30 265 77 429 211 475 389 6 21 9 76 8 120 -7 192 -139 339 -390
434 -211 79 -453 113 -820 116 -103 1 -189 1 -190 0z m358 -248 c72 -3 141 -8
155 -10 14 -2 50 -6 80 -10 94 -12 249 -55 313 -87 112 -55 167 -126 167 -216
0 -177 -204 -279 -635 -318 -78 -8 -452 -8 -530 0 -278 25 -464 79 -556 162
-69 63 -90 133 -65 217 46 150 300 244 711 262 77 4 141 7 142 8 1 1 21 1 45
0 24 -2 102 -5 173 -8z"/>
</g>
</svg>
